<mxfile host="app.diagrams.net" modified="2020-10-06T14:07:08.001Z" agent="5.0 (Windows NT 10.0; Win64; x64) AppleWebKit/537.36 (KHTML, like Gecko) Chrome/85.0.4183.121 Safari/537.36" etag="P5mF023vCLucY7y5dERw" version="13.7.7" type="github">
  <diagram id="C5RBs43oDa-KdzZeNtuy" name="Page-1">
    <mxGraphModel dx="1303" dy="658" grid="1" gridSize="10" guides="1" tooltips="1" connect="1" arrows="1" fold="1" page="1" pageScale="1" pageWidth="827" pageHeight="1169" math="0" shadow="0">
      <root>
        <mxCell id="WIyWlLk6GJQsqaUBKTNV-0" />
        <mxCell id="WIyWlLk6GJQsqaUBKTNV-1" parent="WIyWlLk6GJQsqaUBKTNV-0" />
        <mxCell id="Z6990aK4tUbU_mZ2Zn4e-11" style="edgeStyle=orthogonalEdgeStyle;rounded=0;orthogonalLoop=1;jettySize=auto;html=1;exitX=0.5;exitY=1;exitDx=0;exitDy=0;entryX=0;entryY=0.5;entryDx=0;entryDy=0;" edge="1" parent="WIyWlLk6GJQsqaUBKTNV-1" source="WIyWlLk6GJQsqaUBKTNV-3" target="Z6990aK4tUbU_mZ2Zn4e-4">
          <mxGeometry relative="1" as="geometry" />
        </mxCell>
        <mxCell id="WIyWlLk6GJQsqaUBKTNV-3" value="get data from JIRA&lt;br&gt;jira task with work log entry less than 8 hrs" style="rounded=1;whiteSpace=wrap;html=1;fontSize=12;glass=0;strokeWidth=1;shadow=0;" parent="WIyWlLk6GJQsqaUBKTNV-1" vertex="1">
          <mxGeometry x="250" y="30" width="120" height="40" as="geometry" />
        </mxCell>
        <mxCell id="Z6990aK4tUbU_mZ2Zn4e-0" value="For a user &amp;amp; for a given day" style="rounded=1;whiteSpace=wrap;html=1;" vertex="1" parent="WIyWlLk6GJQsqaUBKTNV-1">
          <mxGeometry x="50" y="20" width="120" height="60" as="geometry" />
        </mxCell>
        <mxCell id="Z6990aK4tUbU_mZ2Zn4e-3" value="" style="edgeStyle=orthogonalEdgeStyle;rounded=0;orthogonalLoop=1;jettySize=auto;html=1;" edge="1" parent="WIyWlLk6GJQsqaUBKTNV-1" source="Z6990aK4tUbU_mZ2Zn4e-1" target="Z6990aK4tUbU_mZ2Zn4e-2">
          <mxGeometry relative="1" as="geometry" />
        </mxCell>
        <mxCell id="Z6990aK4tUbU_mZ2Zn4e-1" value="Get clockify entries for the day" style="rounded=1;whiteSpace=wrap;html=1;" vertex="1" parent="WIyWlLk6GJQsqaUBKTNV-1">
          <mxGeometry x="560" y="20" width="120" height="60" as="geometry" />
        </mxCell>
        <mxCell id="Z6990aK4tUbU_mZ2Zn4e-5" value="" style="edgeStyle=orthogonalEdgeStyle;rounded=0;orthogonalLoop=1;jettySize=auto;html=1;" edge="1" parent="WIyWlLk6GJQsqaUBKTNV-1" source="Z6990aK4tUbU_mZ2Zn4e-2" target="Z6990aK4tUbU_mZ2Zn4e-4">
          <mxGeometry relative="1" as="geometry" />
        </mxCell>
        <mxCell id="Z6990aK4tUbU_mZ2Zn4e-9" value="" style="edgeStyle=orthogonalEdgeStyle;rounded=0;orthogonalLoop=1;jettySize=auto;html=1;" edge="1" parent="WIyWlLk6GJQsqaUBKTNV-1" source="Z6990aK4tUbU_mZ2Zn4e-2" target="Z6990aK4tUbU_mZ2Zn4e-8">
          <mxGeometry relative="1" as="geometry" />
        </mxCell>
        <mxCell id="Z6990aK4tUbU_mZ2Zn4e-2" value="total Sum of the day is less than 8 hrs?" style="whiteSpace=wrap;html=1;rounded=1;" vertex="1" parent="WIyWlLk6GJQsqaUBKTNV-1">
          <mxGeometry x="560" y="120" width="120" height="40" as="geometry" />
        </mxCell>
        <mxCell id="Z6990aK4tUbU_mZ2Zn4e-13" value="" style="edgeStyle=orthogonalEdgeStyle;rounded=0;orthogonalLoop=1;jettySize=auto;html=1;" edge="1" parent="WIyWlLk6GJQsqaUBKTNV-1" source="Z6990aK4tUbU_mZ2Zn4e-4" target="Z6990aK4tUbU_mZ2Zn4e-12">
          <mxGeometry relative="1" as="geometry" />
        </mxCell>
        <mxCell id="Z6990aK4tUbU_mZ2Zn4e-16" style="edgeStyle=orthogonalEdgeStyle;rounded=0;orthogonalLoop=1;jettySize=auto;html=1;" edge="1" parent="WIyWlLk6GJQsqaUBKTNV-1" source="Z6990aK4tUbU_mZ2Zn4e-4">
          <mxGeometry relative="1" as="geometry">
            <mxPoint x="700" y="260" as="targetPoint" />
          </mxGeometry>
        </mxCell>
        <mxCell id="Z6990aK4tUbU_mZ2Zn4e-4" value="Get the entries under Jira under jira tag&lt;br&gt;and compare them with jira task from jira entries.&lt;br&gt;Are these same&lt;br&gt;a. description&lt;br&gt;b time logged" style="whiteSpace=wrap;html=1;rounded=1;" vertex="1" parent="WIyWlLk6GJQsqaUBKTNV-1">
          <mxGeometry x="560" y="190" width="120" height="140" as="geometry" />
        </mxCell>
        <mxCell id="Z6990aK4tUbU_mZ2Zn4e-6" value="Yes" style="text;html=1;strokeColor=none;fillColor=none;align=center;verticalAlign=middle;whiteSpace=wrap;rounded=0;" vertex="1" parent="WIyWlLk6GJQsqaUBKTNV-1">
          <mxGeometry x="620" y="160" width="40" height="20" as="geometry" />
        </mxCell>
        <mxCell id="Z6990aK4tUbU_mZ2Zn4e-8" value="End" style="whiteSpace=wrap;html=1;rounded=1;" vertex="1" parent="WIyWlLk6GJQsqaUBKTNV-1">
          <mxGeometry x="700" y="120" width="110" height="30" as="geometry" />
        </mxCell>
        <mxCell id="Z6990aK4tUbU_mZ2Zn4e-12" value="End" style="whiteSpace=wrap;html=1;rounded=1;" vertex="1" parent="WIyWlLk6GJQsqaUBKTNV-1">
          <mxGeometry x="560" y="380" width="120" height="60" as="geometry" />
        </mxCell>
        <mxCell id="Z6990aK4tUbU_mZ2Zn4e-14" value="Yes" style="text;html=1;strokeColor=none;fillColor=none;align=center;verticalAlign=middle;whiteSpace=wrap;rounded=0;" vertex="1" parent="WIyWlLk6GJQsqaUBKTNV-1">
          <mxGeometry x="620" y="330" width="40" height="20" as="geometry" />
        </mxCell>
        <mxCell id="Z6990aK4tUbU_mZ2Zn4e-17" value="Delete mismatch entries in clockify under jira tag.&lt;br&gt;and replace it with jira entries" style="whiteSpace=wrap;html=1;rounded=1;" vertex="1" parent="WIyWlLk6GJQsqaUBKTNV-1">
          <mxGeometry x="695" y="230" width="125" height="80" as="geometry" />
        </mxCell>
      </root>
    </mxGraphModel>
  </diagram>
</mxfile>
